{
.appVersion = "3059";
.formatVersion = 3;
date = "2021-04-23 20:39:54 +0000";
familyName = "Open Science Icons";
fontMaster = (
{
id = m01;
metricValues = (
{
over = 16;
pos = 800;
},
{
over = -16;
},
{
over = -16;
pos = -200;
}
);
name = Regular;
}
);
glyphs = (
{
glyphname = uniE900;
lastChange = "2021-04-24 10:51:48 +0000";
layers = (
{
layerId = m01;
shapes = (
{
attr = {
fillColor = (0,255);
};
closed = 1;
nodes = (
(729,1,o),
(924,196,o),
(924,438,c),
(924,679,o),
(729,874,o),
(487,874,c),
(487,874,l),
(246,874,o),
(50,679,o),
(50,438,c),
(50,196,o),
(246,1,o),
(487,1,c)
);
},
{
attr = {
fillColor = (0,255);
};
closed = 1;
nodes = (
(474,179,o),
(468,183,o),
(465,187,c),
(333,441,l),
(332,441,l),
(297,199,l),
(297,193,o),
(290,187,o),
(282,187,c),
(190,187,l),
(181,187,o),
(174,194,o),
(175,204,c),
(264,729,l),
(265,736,o),
(272,741,o),
(278,741,c),
(290,741,l),
(294,741,o),
(301,738,o),
(304,734,c),
(485,396,l),
(486,396,l),
(668,734,l),
(670,738,o),
(677,741,o),
(681,741,c),
(693,741,l),
(700,741,o),
(707,736,o),
(707,729,c),
(796,204,l),
(797,194,o),
(790,187,o),
(781,187,c),
(689,187,l),
(682,187,o),
(675,193,o),
(674,199,c),
(639,441,l),
(637,441,l),
(506,187,l),
(504,183,o),
(497,179,o),
(493,179,c),
(479,179,l)
);
}
);
width = 974;
}
);
unicode = 59648;
},
{
glyphname = uniE901;
lastChange = "2021-04-24 10:51:48 +0000";
layers = (
{
layerId = m01;
shapes = (
{
attr = {
fillColor = (0,255);
};
closed = 1;
nodes = (
(729,1,o),
(924,196,o),
(924,438,c),
(924,679,o),
(729,874,o),
(487,874,c),
(487,874,l),
(246,874,o),
(50,679,o),
(50,438,c),
(50,196,o),
(246,1,o),
(487,1,c)
);
},
{
attr = {
fillColor = (0,255);
};
closed = 1;
nodes = (
(375,125,o),
(312,172,o),
(292,192,c),
(284,201,o),
(281,204,o),
(288,216,c),
(329,288,l),
(336,299,o),
(352,298,o),
(358,293,c),
(362,292,o),
(424,246,o),
(481,246,c),
(516,246,o),
(541,267,o),
(541,298,c),
(541,334,o),
(511,362,o),
(452,385,c),
(377,415,o),
(284,473,o),
(284,577,c),
(284,663,o),
(350,750,o),
(484,750,c),
(574,750,o),
(644,704,o),
(670,685,c),
(680,679,o),
(678,663,o),
(675,657,c),
(631,590,l),
(624,581,o),
(609,573,o),
(601,579,c),
(593,583,o),
(530,631,o),
(477,631,c),
(446,631,o),
(422,610,o),
(422,587,c),
(422,555,o),
(448,530,o),
(517,503,c),
(585,476,o),
(692,423,o),
(692,305,c),
(692,215,o),
(615,125,o),
(487,125,c)
);
}
);
width = 974;
}
);
unicode = 59649;
},
{
glyphname = uniE902;
lastChange = "2021-04-24 10:51:48 +0000";
layers = (
{
layerId = m01;
shapes = (
{
attr = {
fillColor = (0,255);
};
closed = 1;
nodes = (
(729,1,o),
(924,196,o),
(924,438,c),
(924,679,o),
(729,874,o),
(487,874,c),
(487,874,l),
(246,874,o),
(50,679,o),
(50,438,c),
(50,196,o),
(246,1,o),
(487,1,c)
);
},
{
attr = {
fillColor = (0,255);
};
closed = 1;
nodes = (
(552,399,l),
(485,544,l),
(484,544,l),
(418,399,l)
);
},
{
attr = {
fillColor = (0,255);
};
closed = 1;
nodes = (
(192,188,o),
(185,199,o),
(190,210,c),
(466,803,l),
(469,808,o),
(475,813,o),
(481,813,c),
(490,813,l),
(496,813,o),
(502,808,o),
(505,803,c),
(780,210,l),
(786,199,o),
(779,188,o),
(766,188,c),
(668,188,l),
(652,188,o),
(645,193,o),
(637,210,c),
(605,279,l),
(366,279,l),
(334,209,l),
(329,198,o),
(320,188,o),
(302,188,c),
(205,188,l)
);
}
);
width = 974;
}
);
unicode = 59650;
},
{
glyphname = uniE903;
lastChange = "2021-04-24 10:51:48 +0000";
layers = (
{
layerId = m01;
shapes = (
{
attr = {
fillColor = (0,255);
};
closed = 1;
nodes = (
(729,1,o),
(924,196,o),
(924,438,c),
(924,679,o),
(729,874,o),
(487,874,c),
(487,874,l),
(246,874,o),
(50,679,o),
(50,438,c),
(50,196,o),
(246,1,o),
(487,1,c)
);
},
{
attr = {
fillColor = (0,255);
};
closed = 1;
nodes = (
(316,125,o),
(309,133,o),
(309,142,c),
(309,733,l),
(309,742,o),
(316,750,o),
(325,750,c),
(540,750,l),
(649,750,o),
(739,661,o),
(739,553,c),
(739,442,o),
(649,352,o),
(541,352,c),
(447,352,l),
(447,142,l),
(447,133,o),
(439,125,o),
(430,125,c),
(325,125,l)
);
},
{
attr = {
fillColor = (0,255);
};
closed = 1;
nodes = (
(532,482,l),
(570,482,o),
(602,513,o),
(602,553,c),
(602,590,o),
(570,619,o),
(532,619,c),
(447,619,l),
(447,482,l)
);
}
);
width = 974;
}
);
unicode = 59651;
},
{
glyphname = uniE904;
lastChange = "2021-04-24 10:51:48 +0000";
layers = (
{
layerId = m01;
shapes = (
{
attr = {
fillColor = (0,255);
};
closed = 1;
nodes = (
(729,1,o),
(924,196,o),
(924,438,c),
(924,679,o),
(729,874,o),
(487,874,c),
(487,874,l),
(246,874,o),
(50,679,o),
(50,438,c),
(50,196,o),
(246,1,o),
(487,1,c)
);
},
{
attr = {
fillColor = (0,255);
};
closed = 1;
nodes = (
(222,173,o),
(216,179,o),
(216,187,c),
(216,689,l),
(216,697,o),
(222,704,o),
(230,704,c),
(414,704,l),
(507,704,o),
(584,628,o),
(584,536,c),
(584,442,o),
(507,365,o),
(414,365,c),
(335,365,l),
(335,187,l),
(335,179,o),
(328,173,o),
(320,173,c),
(230,173,l)
);
},
{
attr = {
fillColor = (0,255);
};
closed = 1;
nodes = (
(407,476,l),
(439,476,o),
(467,502,o),
(467,536,c),
(467,568,o),
(439,592,o),
(407,592,c),
(335,592,l),
(335,476,l)
);
},
{
attr = {
fillColor = (0,255);
};
closed = 1;
nodes = (
(619,178,o),
(612,184,o),
(612,192,c),
(612,467,l),
(612,475,o),
(619,481,o),
(627,481,c),
(663,481,l),
(671,481,o),
(674,477,o),
(676,472,c),
(690,439,l),
(705,461,o),
(733,489,o),
(773,489,c),
(815,489,o),
(844,474,o),
(834,456,c),
(796,395,l),
(793,390,o),
(788,386,o),
(780,389,c),
(776,390,o),
(768,392,o),
(761,392,c),
(739,392,o),
(721,375,o),
(721,349,c),
(721,192,l),
(721,183,o),
(717,178,o),
(704,178,c),
(627,178,l)
);
}
);
width = 974;
}
);
unicode = 59652;
},
{
glyphname = uniE905;
lastChange = "2021-04-24 10:51:48 +0000";
layers = (
{
layerId = m01;
shapes = (
{
attr = {
fillColor = (0,255);
};
closed = 1;
nodes = (
(729,1,o),
(924,196,o),
(924,438,c),
(924,679,o),
(729,874,o),
(487,874,c),
(487,874,l),
(246,874,o),
(50,679,o),
(50,438,c),
(50,196,o),
(246,1,o),
(487,1,c)
);
},
{
attr = {
fillColor = (0,255);
};
closed = 1;
nodes = (
(198,174,o),
(192,181,o),
(192,188,c),
(192,688,l),
(192,696,o),
(198,703,o),
(207,703,c),
(388,703,l),
(480,703,o),
(556,627,o),
(556,536,c),
(556,442,o),
(480,366,o),
(388,366,c),
(309,366,l),
(309,188,l),
(309,181,o),
(303,174,o),
(295,174,c),
(207,174,l)
);
},
{
attr = {
fillColor = (0,255);
};
closed = 1;
nodes = (
(381,476,l),
(413,476,o),
(440,502,o),
(440,536,c),
(440,567,o),
(413,591,o),
(381,591,c),
(309,591,l),
(309,476,l)
);
},
{
attr = {
fillColor = (0,255);
};
closed = 1;
nodes = (
(635,171,o),
(597,184,o),
(582,196,c),
(577,201,o),
(573,205,o),
(577,212,c),
(603,264,l),
(605,269,o),
(613,273,o),
(619,270,c),
(619,270,o),
(654,251,o),
(687,251,c),
(694,251,o),
(701,255,o),
(701,264,c),
(701,272,o),
(696,282,o),
(658,296,c),
(599,316,o),
(574,350,o),
(574,397,c),
(574,448,o),
(610,488,o),
(691,488,c),
(738,488,o),
(774,476,o),
(791,465,c),
(798,461,o),
(803,454,o),
(799,446,c),
(771,395,l),
(768,390,o),
(761,388,o),
(755,390,c),
(755,390,o),
(720,408,o),
(691,408,c),
(681,408,o),
(675,405,o),
(675,397,c),
(675,390,o),
(683,382,o),
(708,373,c),
(769,352,o),
(811,328,o),
(811,267,c),
(811,214,o),
(769,171,o),
(684,171,c)
);
}
);
width = 974;
}
);
unicode = 59653;
},
{
glyphname = uniE906;
lastChange = "2021-04-24 10:51:48 +0000";
layers = (
{
layerId = m01;
shapes = (
{
attr = {
fillColor = (0,255);
};
closed = 1;
nodes = (
(729,1,o),
(924,196,o),
(924,438,c),
(924,679,o),
(729,874,o),
(487,874,c),
(487,874,l),
(246,874,o),
(50,679,o),
(50,438,c),
(50,196,o),
(246,1,o),
(487,1,c)
);
},
{
attr = {
fillColor = (0,255);
};
closed = 1;
nodes = (
(177,193,o),
(171,199,o),
(171,206,c),
(171,674,l),
(171,681,o),
(177,688,o),
(184,688,c),
(355,688,l),
(442,688,o),
(514,617,o),
(514,531,c),
(514,444,o),
(442,372,o),
(356,372,c),
(282,372,l),
(282,206,l),
(282,199,o),
(275,193,o),
(268,193,c),
(184,193,l)
);
},
{
attr = {
fillColor = (0,255);
};
closed = 1;
nodes = (
(349,475,l),
(379,475,o),
(405,499,o),
(405,531,c),
(405,561,o),
(379,584,o),
(349,584,c),
(282,584,l),
(282,475,l)
);
},
{
attr = {
fillColor = (0,255);
};
closed = 1;
nodes = (
(581,188,o),
(541,255,o),
(541,336,c),
(541,464,l),
(541,472,o),
(547,477,o),
(554,477,c),
(630,477,l),
(637,477,o),
(644,472,o),
(644,464,c),
(644,333,l),
(644,304,o),
(660,279,o),
(689,279,c),
(717,279,o),
(731,305,o),
(731,329,c),
(731,464,l),
(731,475,o),
(739,477,o),
(746,477,c),
(819,477,l),
(826,477,o),
(832,472,o),
(832,464,c),
(832,208,l),
(832,201,o),
(826,195,o),
(819,195,c),
(785,195,l),
(779,195,o),
(774,200,o),
(772,204,c),
(761,231,l),
(743,213,o),
(720,188,o),
(665,188,c)
);
}
);
width = 974;
}
);
unicode = 59654;
},
{
glyphname = uniE907;
lastChange = "2021-04-24 10:51:48 +0000";
layers = (
{
layerId = m01;
shapes = (
{
attr = {
fillColor = (0,255);
};
closed = 1;
nodes = (
(729,1,o),
(924,196,o),
(924,438,c),
(924,679,o),
(729,874,o),
(487,874,c),
(487,874,l),
(246,874,o),
(50,679,o),
(50,438,c),
(50,196,o),
(246,1,o),
(487,1,c)
);
},
{
attr = {
fillColor = (0,255);
};
closed = 1;
nodes = (
(327,125,o),
(187,263,o),
(187,437,c),
(187,610,o),
(327,750,o),
(500,750,c),
(587,750,o),
(651,723,o),
(710,669,c),
(718,662,o),
(718,652,o),
(711,645,c),
(643,575,l),
(637,569,o),
(628,569,o),
(622,575,c),
(590,603,o),
(547,619,o),
(505,619,c),
(407,619,o),
(335,537,o),
(335,440,c),
(335,344,o),
(408,264,o),
(505,264,c),
(546,264,o),
(590,279,o),
(622,306,c),
(628,311,o),
(639,311,o),
(644,305,c),
(712,233,l),
(718,227,o),
(717,215,o),
(711,209,c),
(652,152,o),
(577,125,o),
(500,125,c)
);
}
);
width = 974;
}
);
unicode = 59655;
},
{
glyphname = uniE908;
lastChange = "2021-04-24 10:51:48 +0000";
layers = (
{
layerId = m01;
shapes = (
{
attr = {
fillColor = (0,255);
};
closed = 1;
nodes = (
(729,1,o),
(924,196,o),
(924,438,c),
(924,679,o),
(729,874,o),
(487,874,c),
(487,874,l),
(246,874,o),
(50,679,o),
(50,438,c),
(50,196,o),
(246,1,o),
(487,1,c)
);
},
{
attr = {
fillColor = (0,255);
};
closed = 1;
nodes = (
(271,125,o),
(264,133,o),
(264,142,c),
(264,733,l),
(264,742,o),
(271,750,o),
(281,750,c),
(548,750,l),
(656,750,o),
(744,663,o),
(744,557,c),
(744,475,o),
(689,409,o),
(611,378,c),
(734,151,l),
(740,139,o),
(734,125,o),
(719,125,c),
(599,125,l),
(592,125,o),
(587,129,o),
(585,133,c),
(466,370,l),
(404,370,l),
(404,142,l),
(404,133,o),
(396,125,o),
(387,125,c),
(281,125,l)
);
},
{
attr = {
fillColor = (0,255);
};
closed = 1;
nodes = (
(537,483,l),
(573,483,o),
(605,517,o),
(605,554,c),
(605,592,o),
(573,622,o),
(537,622,c),
(404,622,l),
(404,483,l)
);
}
);
width = 974;
}
);
unicode = 59656;
},
{
glyphname = uniE950;
lastChange = "2021-04-25 17:00:55 +0000";
layers = (
{
layerId = m01;
shapes = (
{
attr = {
fillColor = (0,255);
};
closed = 1;
nodes = (
(924,874,l),
(924,1,l),
(50,1,l),
(50,874,l)
);
},
{
attr = {
fillColor = (0,255);
};
closed = 1;
nodes = (
(498,179,o),
(505,183,o),
(507,187,c),
(638,441,l),
(640,441,l),
(675,199,l),
(676,193,o),
(683,187,o),
(690,187,c),
(782,187,l),
(791,187,o),
(798,194,o),
(797,204,c),
(708,729,l),
(708,736,o),
(701,741,o),
(694,741,c),
(682,741,l),
(678,741,o),
(671,738,o),
(669,734,c),
(487,396,l),
(486,396,l),
(305,734,l),
(302,738,o),
(295,741,o),
(291,741,c),
(279,741,l),
(273,741,o),
(266,736,o),
(265,729,c),
(176,204,l),
(175,194,o),
(182,187,o),
(191,187,c),
(283,187,l),
(291,187,o),
(298,193,o),
(298,199,c),
(333,441,l),
(334,441,l),
(466,187,l),
(469,183,o),
(475,179,o),
(480,179,c),
(494,179,l)
);
}
);
width = 974;
}
);
unicode = 59728;
},
{
glyphname = uniE951;
lastChange = "2021-04-25 17:00:55 +0000";
layers = (
{
layerId = m01;
shapes = (
{
attr = {
fillColor = (0,255);
};
closed = 1;
nodes = (
(924,874,l),
(924,1,l),
(50,1,l),
(50,874,l)
);
},
{
attr = {
fillColor = (0,255);
};
closed = 1;
nodes = (
(615,125,o),
(692,215,o),
(692,305,c),
(692,423,o),
(585,476,o),
(517,503,c),
(448,530,o),
(422,555,o),
(422,587,c),
(422,610,o),
(446,631,o),
(477,631,c),
(530,631,o),
(593,583,o),
(601,579,c),
(609,573,o),
(624,581,o),
(631,590,c),
(675,657,l),
(678,663,o),
(680,679,o),
(670,685,c),
(644,704,o),
(574,750,o),
(484,750,c),
(350,750,o),
(284,663,o),
(284,577,c),
(284,473,o),
(377,415,o),
(452,385,c),
(511,362,o),
(541,334,o),
(541,298,c),
(541,267,o),
(516,246,o),
(481,246,c),
(424,246,o),
(362,292,o),
(358,293,c),
(352,298,o),
(336,299,o),
(329,288,c),
(288,216,l),
(281,204,o),
(284,201,o),
(292,192,c),
(312,172,o),
(375,125,o),
(487,125,c)
);
}
);
width = 974;
}
);
unicode = 59729;
},
{
glyphname = uniE952;
lastChange = "2021-04-25 17:00:55 +0000";
layers = (
{
layerId = m01;
shapes = (
{
attr = {
fillColor = (0,255);
};
closed = 1;
nodes = (
(924,874,l),
(924,1,l),
(50,1,l),
(50,874,l)
);
},
{
attr = {
fillColor = (0,255);
};
closed = 1;
nodes = (
(321,132,o),
(330,142,o),
(335,153,c),
(367,223,l),
(606,223,l),
(638,154,l),
(646,137,o),
(653,132,o),
(669,132,c),
(767,132,l),
(780,132,o),
(787,143,o),
(781,154,c),
(506,747,l),
(503,752,o),
(497,757,o),
(491,757,c),
(482,757,l),
(476,757,o),
(470,752,o),
(467,747,c),
(191,154,l),
(186,143,o),
(193,132,o),
(206,132,c),
(303,132,l)
);
},
{
attr = {
fillColor = (0,255);
};
closed = 1;
nodes = (
(419,343,l),
(485,488,l),
(486,488,l),
(553,343,l)
);
}
);
width = 974;
}
);
unicode = 59730;
},
{
glyphname = uniE953;
lastChange = "2021-04-25 17:00:55 +0000";
layers = (
{
layerId = m01;
shapes = (
{
attr = {
fillColor = (0,255);
};
closed = 1;
nodes = (
(922,872,l),
(922,1,l),
(50,1,l),
(50,872,l)
);
},
{
attr = {
fillColor = (0,255);
};
closed = 1;
nodes = (
(439,127,o),
(447,135,o),
(447,144,c),
(447,353,l),
(540,353,l),
(649,353,o),
(738,443,o),
(738,554,c),
(738,662,o),
(649,751,o),
(540,751,c),
(326,751,l),
(316,751,o),
(309,743,o),
(309,734,c),
(309,144,l),
(309,135,o),
(316,127,o),
(326,127,c),
(430,127,l)
);
},
{
attr = {
fillColor = (0,255);
};
closed = 1;
nodes = (
(447,483,l),
(447,620,l),
(532,620,l),
(570,620,o),
(602,591,o),
(602,554,c),
(602,514,o),
(570,483,o),
(532,483,c)
);
}
);
width = 972;
}
);
unicode = 59731;
},
{
glyphname = uniE954;
lastChange = "2021-04-25 17:00:55 +0000";
layers = (
{
layerId = m01;
shapes = (
{
attr = {
fillColor = (0,255);
};
closed = 1;
nodes = (
(922,872,l),
(922,1,l),
(50,1,l),
(50,872,l)
);
},
{
attr = {
fillColor = (0,255);
};
closed = 1;
nodes = (
(715,180,o),
(719,185,o),
(719,194,c),
(719,351,l),
(719,376,o),
(737,394,o),
(759,394,c),
(766,394,o),
(774,392,o),
(778,390,c),
(786,387,o),
(791,392,o),
(794,397,c),
(832,457,l),
(842,475,o),
(813,490,o),
(771,490,c),
(731,490,o),
(703,462,o),
(688,440,c),
(675,473,l),
(672,478,o),
(669,482,o),
(661,482,c),
(625,482,l),
(618,482,o),
(611,476,o),
(611,468,c),
(611,194,l),
(611,186,o),
(618,180,o),
(625,180,c),
(703,180,l)
);
},
{
attr = {
fillColor = (0,255);
};
closed = 1;
nodes = (
(327,175,o),
(334,181,o),
(334,189,c),
(334,367,l),
(413,367,l),
(506,367,o),
(582,443,o),
(582,537,c),
(582,629,o),
(506,704,o),
(413,704,c),
(230,704,l),
(221,704,o),
(215,698,o),
(215,690,c),
(215,189,l),
(215,181,o),
(221,175,o),
(230,175,c),
(319,175,l)
);
},
{
attr = {
fillColor = (0,255);
};
closed = 1;
nodes = (
(334,477,l),
(334,593,l),
(406,593,l),
(438,593,o),
(466,569,o),
(466,537,c),
(466,503,o),
(438,477,o),
(406,477,c)
);
}
);
width = 972;
}
);
unicode = 59732;
},
{
glyphname = uniE955;
lastChange = "2021-04-25 17:00:55 +0000";
layers = (
{
layerId = m01;
shapes = (
{
attr = {
fillColor = (0,255);
};
closed = 1;
nodes = (
(922,872,l),
(922,1,l),
(50,1,l),
(50,872,l)
);
},
{
attr = {
fillColor = (0,255);
};
closed = 1;
nodes = (
(768,173,o),
(810,216,o),
(810,269,c),
(810,329,o),
(768,353,o),
(708,374,c),
(682,384,o),
(674,391,o),
(674,399,c),
(674,407,o),
(681,409,o),
(690,409,c),
(720,409,o),
(754,392,o),
(754,392,c),
(760,390,o),
(768,392,o),
(770,396,c),
(797,448,l),
(802,455,o),
(797,462,o),
(790,466,c),
(774,477,o),
(738,490,o),
(690,490,c),
(609,490,o),
(573,449,o),
(573,399,c),
(573,352,o),
(599,318,o),
(657,298,c),
(696,284,o),
(700,274,o),
(700,266,c),
(700,257,o),
(693,252,o),
(686,252,c),
(654,252,o),
(618,272,o),
(618,272,c),
(612,275,o),
(605,271,o),
(603,266,c),
(576,214,l),
(573,207,o),
(576,203,o),
(582,198,c),
(597,186,o),
(634,173,o),
(684,173,c)
);
},
{
attr = {
fillColor = (0,255);
};
closed = 1;
nodes = (
(303,176,o),
(310,183,o),
(310,190,c),
(310,367,l),
(388,367,l),
(480,367,o),
(556,443,o),
(556,537,c),
(556,628,o),
(480,703,o),
(388,703,c),
(207,703,l),
(199,703,o),
(193,696,o),
(193,689,c),
(193,190,l),
(193,183,o),
(199,176,o),
(207,176,c),
(295,176,l)
);
},
{
attr = {
fillColor = (0,255);
};
closed = 1;
nodes = (
(310,477,l),
(310,592,l),
(381,592,l),
(413,592,o),
(440,568,o),
(440,537,c),
(440,503,o),
(413,477,o),
(381,477,c)
);
}
);
width = 972;
}
);
unicode = 59733;
},
{
glyphname = uniE956;
lastChange = "2021-04-25 17:00:55 +0000";
layers = (
{
layerId = m01;
shapes = (
{
attr = {
fillColor = (0,255);
};
closed = 1;
nodes = (
(919,870,l),
(919,1,l),
(50,1,l),
(50,870,l)
);
},
{
attr = {
fillColor = (0,255);
};
closed = 1;
nodes = (
(716,192,o),
(739,217,o),
(757,234,c),
(768,208,l),
(770,204,o),
(775,199,o),
(781,199,c),
(814,199,l),
(822,199,o),
(828,205,o),
(828,212,c),
(828,467,l),
(828,474,o),
(822,480,o),
(814,480,c),
(743,480,l),
(735,480,o),
(728,478,o),
(728,467,c),
(728,332,l),
(728,308,o),
(713,282,o),
(685,282,c),
(656,282,o),
(640,308,o),
(640,336,c),
(640,467,l),
(640,474,o),
(634,480,o),
(627,480,c),
(551,480,l),
(544,480,o),
(538,474,o),
(538,467,c),
(538,339,l),
(538,259,o),
(578,192,o),
(662,192,c)
);
},
{
attr = {
fillColor = (0,255);
};
closed = 1;
nodes = (
(274,197,o),
(280,203,o),
(280,210,c),
(280,375,l),
(354,375,l),
(440,375,o),
(511,446,o),
(511,534,c),
(511,619,o),
(440,689,o),
(353,689,c),
(183,689,l),
(176,689,o),
(170,683,o),
(170,676,c),
(170,210,l),
(170,203,o),
(176,197,o),
(183,197,c),
(267,197,l)
);
},
{
attr = {
fillColor = (0,255);
};
closed = 1;
nodes = (
(280,478,l),
(280,586,l),
(347,586,l),
(377,586,o),
(403,563,o),
(403,534,c),
(403,502,o),
(377,478,o),
(347,478,c)
);
}
);
width = 969;
}
);
unicode = 59734;
},
{
glyphname = uniE957;
lastChange = "2021-04-25 17:00:55 +0000";
layers = (
{
layerId = m01;
shapes = (
{
attr = {
fillColor = (0,255);
};
closed = 1;
nodes = (
(920,870,l),
(920,1,l),
(50,1,l),
(50,870,l)
);
},
{
attr = {
fillColor = (0,255);
};
closed = 1;
nodes = (
(574,129,o),
(648,156,o),
(706,213,c),
(712,219,o),
(713,230,o),
(707,236,c),
(640,308,l),
(635,314,o),
(624,314,o),
(618,309,c),
(586,282,o),
(542,268,o),
(502,268,c),
(404,268,o),
(332,347,o),
(332,443,c),
(332,540,o),
(404,621,o),
(501,621,c),
(543,621,o),
(586,605,o),
(618,577,c),
(624,571,o),
(633,571,o),
(639,577,c),
(706,647,l),
(713,654,o),
(713,664,o),
(706,671,c),
(647,724,o),
(583,751,o),
(497,751,c),
(324,751,o),
(185,612,o),
(185,439,c),
(185,267,o),
(324,129,o),
(497,129,c)
);
}
);
width = 970;
}
);
unicode = 59735;
},
{
glyphname = uniE958;
lastChange = "2021-04-25 17:00:55 +0000";
layers = (
{
layerId = m01;
shapes = (
{
attr = {
fillColor = (0,255);
};
closed = 1;
nodes = (
(919,870,l),
(919,1,l),
(50,1,l),
(50,870,l)
);
},
{
attr = {
fillColor = (0,255);
};
closed = 1;
nodes = (
(394,129,o),
(402,137,o),
(402,146,c),
(402,373,l),
(464,373,l),
(582,137,l),
(584,134,o),
(589,129,o),
(596,129,c),
(715,129,l),
(730,129,o),
(736,144,o),
(730,155,c),
(608,381,l),
(686,412,o),
(740,478,o),
(740,559,c),
(740,665,o),
(653,751,o),
(546,751,c),
(279,751,l),
(269,751,o),
(262,743,o),
(262,734,c),
(262,146,l),
(262,137,o),
(269,129,o),
(279,129,c),
(385,129,l)
);
},
{
attr = {
fillColor = (0,255);
};
closed = 1;
nodes = (
(402,486,l),
(402,624,l),
(534,624,l),
(571,624,o),
(602,594,o),
(602,557,c),
(602,519,o),
(571,486,o),
(534,486,c)
);
}
);
width = 969;
}
);
unicode = 59736;
},
{
glyphname = uniE9A0;
lastChange = "2021-04-25 17:00:55 +0000";
layers = (
{
layerId = m01;
shapes = (
{
attr = {
fillColor = (0,255);
};
closed = 1;
nodes = (
(432,871,o),
(436,869,o),
(440,867,c),
(440,867,l),
(794,663,l),
(798,661,o),
(801,658,o),
(803,654,c),
(805,650,o),
(806,646,o),
(806,642,c),
(806,642,l),
(806,233,l),
(806,224,o),
(802,216,o),
(794,212,c),
(794,212,l),
(440,8,l),
(433,3,o),
(423,3,o),
(416,8,c),
(416,8,l),
(62,212,l),
(54,216,o),
(50,224,o),
(50,233,c),
(50,233,l),
(50,642,l),
(50,646,o),
(51,650,o),
(53,654,c),
(55,658,o),
(58,661,o),
(62,663,c),
(62,663,l),
(416,867,l),
(420,869,o),
(424,871,o),
(428,871,c)
);
},
{
attr = {
fillColor = (0,255);
};
closed = 1;
nodes = (
(436,235,o),
(442,238,o),
(444,242,c),
(549,444,l),
(550,444,l),
(578,251,l),
(579,246,o),
(584,241,o),
(590,241,c),
(663,241,l),
(671,241,o),
(677,247,o),
(675,255,c),
(605,675,l),
(604,681,o),
(599,685,o),
(594,685,c),
(584,685,l),
(580,685,o),
(575,683,o),
(573,679,c),
(428,409,l),
(427,409,l),
(282,679,l),
(280,683,o),
(274,685,o),
(271,685,c),
(261,685,l),
(256,685,o),
(251,681,o),
(250,675,c),
(179,255,l),
(178,247,o),
(184,241,o),
(191,241,c),
(265,241,l),
(271,241,o),
(276,246,o),
(277,251,c),
(304,444,l),
(306,444,l),
(411,242,l),
(413,238,o),
(418,235,o),
(422,235,c),
(433,235,l)
);
}
);
width = 856;
}
);
unicode = 59808;
},
{
glyphname = uniE9A1;
lastChange = "2021-04-25 17:00:55 +0000";
layers = (
{
layerId = m01;
shapes = (
{
attr = {
fillColor = (0,255);
};
closed = 1;
nodes = (
(432,871,o),
(436,869,o),
(440,867,c),
(440,867,l),
(794,663,l),
(798,661,o),
(801,658,o),
(803,654,c),
(805,650,o),
(806,646,o),
(806,642,c),
(806,642,l),
(806,233,l),
(806,224,o),
(802,216,o),
(794,212,c),
(794,212,l),
(440,8,l),
(433,3,o),
(423,3,o),
(416,8,c),
(416,8,l),
(62,212,l),
(54,216,o),
(50,224,o),
(50,233,c),
(50,233,l),
(50,642,l),
(50,646,o),
(51,650,o),
(53,654,c),
(55,658,o),
(58,661,o),
(62,663,c),
(62,663,l),
(416,867,l),
(420,869,o),
(424,871,o),
(428,871,c)
);
},
{
attr = {
fillColor = (0,255);
};
closed = 1;
nodes = (
(532,188,o),
(594,260,o),
(594,331,c),
(594,426,o),
(508,468,o),
(454,490,c),
(399,512,o),
(378,531,o),
(378,557,c),
(378,576,o),
(397,592,o),
(422,592,c),
(464,592,o),
(515,554,o),
(521,551,c),
(527,546,o),
(540,552,o),
(545,560,c),
(580,613,l),
(583,618,o),
(585,631,o),
(576,635,c),
(555,651,o),
(500,688,o),
(427,688,c),
(320,688,o),
(267,618,o),
(267,549,c),
(267,466,o),
(342,419,o),
(402,396,c),
(449,377,o),
(473,355,o),
(473,326,c),
(473,301,o),
(453,284,o),
(425,284,c),
(379,284,o),
(329,321,o),
(327,322,c),
(322,326,o),
(308,327,o),
(303,318,c),
(270,260,l),
(265,251,o),
(267,248,o),
(274,241,c),
(290,225,o),
(340,188,o),
(430,188,c)
);
}
);
width = 856;
}
);
unicode = 59809;
},
{
glyphname = uniE9A2;
lastChange = "2021-04-25 17:00:55 +0000";
layers = (
{
layerId = m01;
shapes = (
{
attr = {
fillColor = (0,255);
};
closed = 1;
nodes = (
(433,871,o),
(437,869,o),
(441,867,c),
(441,867,l),
(795,663,l),
(798,661,o),
(801,658,o),
(803,654,c),
(806,650,o),
(807,646,o),
(807,642,c),
(807,642,l),
(807,233,l),
(807,224,o),
(802,216,o),
(795,212,c),
(795,212,l),
(441,8,l),
(433,3,o),
(424,3,o),
(416,8,c),
(416,8,l),
(62,212,l),
(55,216,o),
(50,224,o),
(50,233,c),
(50,233,l),
(50,642,l),
(50,646,o),
(51,650,o),
(54,654,c),
(56,658,o),
(59,661,o),
(62,663,c),
(62,663,l),
(416,867,l),
(420,869,o),
(424,871,o),
(429,871,c)
);
},
{
attr = {
fillColor = (0,255);
};
closed = 1;
nodes = (
(294,250,o),
(301,258,o),
(305,267,c),
(330,323,l),
(522,323,l),
(547,268,l),
(554,254,o),
(559,250,o),
(572,250,c),
(650,250,l),
(661,250,o),
(666,259,o),
(662,268,c),
(442,742,l),
(439,746,o),
(434,750,o),
(430,750,c),
(422,750,l),
(418,750,o),
(413,746,o),
(410,742,c),
(190,268,l),
(186,259,o),
(191,250,o),
(202,250,c),
(279,250,l)
);
},
{
attr = {
fillColor = (0,255);
};
closed = 1;
nodes = (
(372,419,l),
(425,535,l),
(426,535,l),
(480,419,l)
);
}
);
width = 857;
}
);
unicode = 59810;
},
{
glyphname = uniE9A3;
lastChange = "2021-04-25 17:00:55 +0000";
layers = (
{
layerId = m01;
shapes = (
{
attr = {
fillColor = (0,255);
};
closed = 1;
nodes = (
(432,871,o),
(436,869,o),
(440,867,c),
(440,867,l),
(794,663,l),
(798,661,o),
(801,658,o),
(803,654,c),
(805,650,o),
(806,646,o),
(806,642,c),
(806,642,l),
(806,233,l),
(806,224,o),
(802,216,o),
(794,212,c),
(794,212,l),
(440,8,l),
(433,3,o),
(423,3,o),
(416,8,c),
(416,8,l),
(62,212,l),
(54,216,o),
(50,224,o),
(50,233,c),
(50,233,l),
(50,642,l),
(50,646,o),
(51,650,o),
(53,654,c),
(55,658,o),
(58,661,o),
(62,663,c),
(62,663,l),
(416,867,l),
(420,869,o),
(424,871,o),
(428,871,c)
);
},
{
attr = {
fillColor = (0,255);
};
closed = 1;
nodes = (
(398,188,o),
(404,194,o),
(404,201,c),
(404,369,l),
(479,369,l),
(566,369,o),
(638,441,o),
(638,530,c),
(638,616,o),
(566,688,o),
(478,688,c),
(307,688,l),
(299,688,o),
(293,681,o),
(293,674,c),
(293,201,l),
(293,194,o),
(299,188,o),
(307,188,c),
(391,188,l)
);
},
{
attr = {
fillColor = (0,255);
};
closed = 1;
nodes = (
(404,473,l),
(404,583,l),
(472,583,l),
(503,583,o),
(528,560,o),
(528,530,c),
(528,498,o),
(503,473,o),
(472,473,c)
);
}
);
width = 856;
}
);
unicode = 59811;
},
{
glyphname = uniE9A4;
lastChange = "2021-04-25 17:00:55 +0000";
layers = (
{
layerId = m01;
shapes = (
{
attr = {
fillColor = (0,255);
};
closed = 1;
nodes = (
(432,871,o),
(436,869,o),
(440,867,c),
(440,867,l),
(794,663,l),
(798,661,o),
(801,658,o),
(803,654,c),
(805,650,o),
(806,646,o),
(806,642,c),
(806,642,l),
(806,233,l),
(806,224,o),
(802,216,o),
(794,212,c),
(794,212,l),
(440,8,l),
(433,3,o),
(423,3,o),
(416,8,c),
(416,8,l),
(62,212,l),
(54,216,o),
(50,224,o),
(50,233,c),
(50,233,l),
(50,642,l),
(50,646,o),
(51,650,o),
(53,654,c),
(55,658,o),
(58,661,o),
(62,663,c),
(62,663,l),
(416,867,l),
(420,869,o),
(424,871,o),
(428,871,c)
);
},
{
attr = {
fillColor = (0,255);
};
closed = 1;
nodes = (
(596,230,o),
(600,234,o),
(600,242,c),
(600,367,l),
(600,388,o),
(614,402,o),
(632,402,c),
(638,402,o),
(644,400,o),
(647,399,c),
(654,396,o),
(658,400,o),
(660,404,c),
(690,453,l),
(699,467,o),
(675,479,o),
(641,479,c),
(610,479,o),
(587,456,o),
(575,439,c),
(564,465,l),
(562,469,o),
(560,473,o),
(553,473,c),
(525,473,l),
(518,473,o),
(513,468,o),
(513,461,c),
(513,242,l),
(513,235,o),
(518,230,o),
(525,230,c),
(587,230,l)
);
},
{
attr = {
fillColor = (0,255);
};
closed = 1;
nodes = (
(286,225,o),
(291,230,o),
(291,237,c),
(291,379,l),
(355,379,l),
(429,379,o),
(491,441,o),
(491,516,c),
(491,589,o),
(429,650,o),
(355,650,c),
(208,650,l),
(202,650,o),
(197,645,o),
(197,638,c),
(197,237,l),
(197,230,o),
(202,225,o),
(208,225,c),
(280,225,l)
);
},
{
attr = {
fillColor = (0,255);
};
closed = 1;
nodes = (
(291,468,l),
(291,561,l),
(349,561,l),
(375,561,o),
(397,541,o),
(397,516,c),
(397,488,o),
(375,468,o),
(349,468,c)
);
}
);
width = 856;
}
);
unicode = 59812;
},
{
glyphname = uniE9A5;
lastChange = "2021-04-25 17:00:55 +0000";
layers = (
{
layerId = m01;
shapes = (
{
attr = {
fillColor = (0,255);
};
closed = 1;
nodes = (
(432,871,o),
(436,869,o),
(440,867,c),
(440,867,l),
(794,663,l),
(798,661,o),
(801,658,o),
(803,654,c),
(805,650,o),
(806,646,o),
(806,642,c),
(806,642,l),
(806,233,l),
(806,224,o),
(802,216,o),
(794,212,c),
(794,212,l),
(440,8,l),
(433,3,o),
(423,3,o),
(416,8,c),
(416,8,l),
(62,212,l),
(54,216,o),
(50,224,o),
(50,233,c),
(50,233,l),
(50,642,l),
(50,646,o),
(51,650,o),
(53,654,c),
(55,658,o),
(58,661,o),
(62,663,c),
(62,663,l),
(416,867,l),
(420,869,o),
(424,871,o),
(428,871,c)
);
},
{
attr = {
fillColor = (0,255);
};
closed = 1;
nodes = (
(658,225,o),
(692,259,o),
(692,302,c),
(692,350,o),
(658,369,o),
(609,386,c),
(589,394,o),
(582,400,o),
(582,406,c),
(582,412,o),
(588,414,o),
(596,414,c),
(619,414,o),
(647,400,o),
(647,400,c),
(651,398,o),
(657,400,o),
(659,404,c),
(682,445,l),
(685,451,o),
(681,456,o),
(676,460,c),
(662,468,o),
(633,479,o),
(596,479,c),
(531,479,o),
(502,446,o),
(502,406,c),
(502,368,o),
(522,341,o),
(569,325,c),
(600,314,o),
(603,305,o),
(603,299,c),
(603,292,o),
(598,288,o),
(592,288,c),
(566,288,o),
(538,304,o),
(538,304,c),
(533,307,o),
(527,303,o),
(525,299,c),
(504,258,l),
(501,252,o),
(504,249,o),
(508,245,c),
(520,235,o),
(550,225,o),
(590,225,c)
);
},
{
attr = {
fillColor = (0,255);
};
closed = 1;
nodes = (
(285,228,o),
(291,233,o),
(291,239,c),
(291,381,l),
(354,381,l),
(427,381,o),
(488,442,o),
(488,517,c),
(488,590,o),
(427,650,o),
(353,650,c),
(208,650,l),
(202,650,o),
(197,645,o),
(197,639,c),
(197,239,l),
(197,233,o),
(202,228,o),
(208,228,c),
(279,228,l)
);
},
{
attr = {
fillColor = (0,255);
};
closed = 1;
nodes = (
(291,469,l),
(291,561,l),
(348,561,l),
(374,561,o),
(395,542,o),
(395,517,c),
(395,489,o),
(374,469,o),
(348,469,c)
);
}
);
width = 856;
}
);
unicode = 59813;
},
{
glyphname = uniE9A6;
lastChange = "2021-04-25 17:00:55 +0000";
layers = (
{
layerId = m01;
shapes = (
{
attr = {
fillColor = (0,255);
};
closed = 1;
nodes = (
(432,871,o),
(436,869,o),
(440,867,c),
(440,867,l),
(794,663,l),
(798,661,o),
(801,658,o),
(803,654,c),
(805,650,o),
(806,646,o),
(806,642,c),
(806,642,l),
(806,233,l),
(806,224,o),
(802,216,o),
(794,212,c),
(794,212,l),
(440,8,l),
(433,3,o),
(423,3,o),
(416,8,c),
(416,8,l),
(62,212,l),
(54,216,o),
(50,224,o),
(50,233,c),
(50,233,l),
(50,642,l),
(50,646,o),
(51,650,o),
(53,654,c),
(55,658,o),
(58,661,o),
(62,663,c),
(62,663,l),
(416,867,l),
(420,869,o),
(424,871,o),
(428,871,c)
);
},
{
attr = {
fillColor = (0,255);
};
closed = 1;
nodes = (
(619,238,o),
(637,258,o),
(651,272,c),
(660,251,l),
(662,247,o),
(666,243,o),
(671,243,c),
(697,243,l),
(703,243,o),
(708,248,o),
(708,254,c),
(708,459,l),
(708,465,o),
(703,470,o),
(697,470,c),
(640,470,l),
(634,470,o),
(628,468,o),
(628,459,c),
(628,351,l),
(628,332,o),
(616,311,o),
(594,311,c),
(571,311,o),
(558,331,o),
(558,354,c),
(558,459,l),
(558,465,o),
(552,470,o),
(547,470,c),
(486,470,l),
(481,470,o),
(476,465,o),
(476,459,c),
(476,357,l),
(476,292,o),
(508,238,o),
(575,238,c)
);
},
{
attr = {
fillColor = (0,255);
};
closed = 1;
nodes = (
(263,241,o),
(268,246,o),
(268,252,c),
(268,385,l),
(328,385,l),
(397,385,o),
(454,442,o),
(454,512,c),
(454,581,o),
(397,638,o),
(327,638,c),
(190,638,l),
(184,638,o),
(179,632,o),
(179,627,c),
(179,252,l),
(179,246,o),
(184,241,o),
(190,241,c),
(257,241,l)
);
},
{
attr = {
fillColor = (0,255);
};
closed = 1;
nodes = (
(268,468,l),
(268,554,l),
(322,554,l),
(346,554,o),
(367,536,o),
(367,512,c),
(367,487,o),
(346,468,o),
(322,468,c)
);
}
);
width = 856;
}
);
unicode = 59814;
},
{
glyphname = uniE9A7;
lastChange = "2021-04-25 17:00:55 +0000";
layers = (
{
layerId = m01;
shapes = (
{
attr = {
fillColor = (0,255);
};
closed = 1;
nodes = (
(432,871,o),
(436,869,o),
(440,867,c),
(440,867,l),
(794,663,l),
(798,661,o),
(801,658,o),
(803,654,c),
(805,650,o),
(806,646,o),
(806,642,c),
(806,642,l),
(806,233,l),
(806,224,o),
(802,216,o),
(794,212,c),
(794,212,l),
(440,8,l),
(433,3,o),
(423,3,o),
(416,8,c),
(416,8,l),
(62,212,l),
(54,216,o),
(50,224,o),
(50,233,c),
(50,233,l),
(50,642,l),
(50,646,o),
(51,650,o),
(53,654,c),
(55,658,o),
(58,661,o),
(62,663,c),
(62,663,l),
(416,867,l),
(420,869,o),
(424,871,o),
(428,871,c)
);
},
{
attr = {
fillColor = (0,255);
};
closed = 1;
nodes = (
(493,188,o),
(553,209,o),
(600,255,c),
(605,260,o),
(606,269,o),
(601,274,c),
(547,331,l),
(543,336,o),
(534,336,o),
(529,332,c),
(504,310,o),
(469,299,o),
(436,299,c),
(358,299,o),
(300,363,o),
(300,440,c),
(300,517,o),
(357,583,o),
(435,583,c),
(469,583,o),
(503,570,o),
(529,547,c),
(534,542,o),
(541,542,o),
(546,547,c),
(600,603,l),
(606,609,o),
(606,617,o),
(599,623,c),
(552,666,o),
(501,688,o),
(432,688,c),
(293,688,o),
(182,576,o),
(182,437,c),
(182,298,o),
(293,188,o),
(432,188,c)
);
}
);
width = 856;
}
);
unicode = 59815;
},
{
glyphname = uniE9A8;
lastChange = "2021-04-25 17:00:55 +0000";
layers = (
{
layerId = m01;
shapes = (
{
attr = {
fillColor = (0,255);
};
closed = 1;
nodes = (
(433,871,o),
(437,869,o),
(441,867,c),
(441,867,l),
(795,663,l),
(798,661,o),
(801,658,o),
(803,654,c),
(806,650,o),
(807,646,o),
(807,642,c),
(807,642,l),
(807,233,l),
(807,224,o),
(802,216,o),
(795,212,c),
(795,212,l),
(441,8,l),
(433,3,o),
(424,3,o),
(416,8,c),
(416,8,l),
(62,212,l),
(55,216,o),
(50,224,o),
(50,233,c),
(50,233,l),
(50,642,l),
(50,646,o),
(51,650,o),
(54,654,c),
(56,658,o),
(59,661,o),
(62,663,c),
(62,663,l),
(416,867,l),
(420,869,o),
(424,871,o),
(429,871,c)
);
},
{
attr = {
fillColor = (0,255);
};
closed = 1;
nodes = (
(342,188,o),
(348,194,o),
(348,201,c),
(348,383,l),
(398,383,l),
(493,194,l),
(494,191,o),
(499,188,o),
(504,188,c),
(600,188,l),
(612,188,o),
(617,199,o),
(612,208,c),
(514,390,l),
(576,415,o),
(620,468,o),
(620,533,c),
(620,618,o),
(550,688,o),
(464,688,c),
(250,688,l),
(242,688,o),
(236,681,o),
(236,674,c),
(236,201,l),
(236,194,o),
(242,188,o),
(250,188,c),
(335,188,l)
);
},
{
attr = {
fillColor = (0,255);
};
closed = 1;
nodes = (
(348,474,l),
(348,585,l),
(454,585,l),
(484,585,o),
(509,561,o),
(509,531,c),
(509,501,o),
(484,474,o),
(454,474,c)
);
}
